HIERARCHY
ROOT Hips
{
  OFFSET 40.9192 92.6879 18.85
  CHANNELS 6 Xposition Yposition Zposition Zrotation Xrotation Yrotation
  JOINT LeftUpLeg
  {
    OFFSET 8.64259 1.95398 -2.38835
    CHANNELS 3 Zrotation Xrotation Yrotation
    JOINT LeftLeg
    {
      OFFSET 43.7702 0 0
      CHANNELS 3 Zrotation Xrotation Yrotation
      JOINT LeftFoot
      {
        OFFSET 40.6238 0 0
        CHANNELS 3 Zrotation Xrotation Yrotation
        JOINT LeftToeBase
        {
          OFFSET 12.7242 0 0
          CHANNELS 3 Zrotation Xrotation Yrotation
          End Site
          {
            OFFSET 0 0 0
          }
        }
      }
    }
  }
  JOINT RightUpLeg
  {
    OFFSET -8.2249 1.95398 -2.59336
    CHANNELS 3 Zrotation Xrotation Yrotation
    JOINT RightLeg
    {
      OFFSET 43.5653 0 0
      CHANNELS 3 Zrotation Xrotation Yrotation
      JOINT RightFoot
      {
        OFFSET 40.6238 0 0
        CHANNELS 3 Zrotation Xrotation Yrotation
        JOINT RightToeBase
        {
          OFFSET 12.7242 0 0
          CHANNELS 3 Zrotation Xrotation Yrotation
          End Site
          {
            OFFSET 0 0 0
          }
        }
      }
    }
  }
  JOINT Spine
  {
    OFFSET 0.165834 0.87714 6.61349
    CHANNELS 3 Zrotation Xrotation Yrotation
    JOINT Spine1
    {
      OFFSET 7.38963 1.71661e-005 0
      CHANNELS 3 Zrotation Xrotation Yrotation
      JOINT Spine2
      {
        OFFSET 11.9445 1.14441e-005 0
        CHANNELS 3 Zrotation Xrotation Yrotation
        JOINT Spine3
        {
          OFFSET 14.7254 4.19617e-005 0
          CHANNELS 3 Zrotation Xrotation Yrotation
          JOINT Spine4
          {
            OFFSET 10.9679 0 0
            CHANNELS 3 Zrotation Xrotation Yrotation
            JOINT RightShoulder
            {
              OFFSET 2.46616 -1.6653 3.69651
              CHANNELS 3 Zrotation Xrotation Yrotation
              JOINT RightArm
              {
                OFFSET 13.0012 0 0
                CHANNELS 3 Zrotation Xrotation Yrotation
                JOINT RightForeArm
                {
                  OFFSET 28.7848 1.52588e-005 0
                  CHANNELS 3 Zrotation Xrotation Yrotation
                  JOINT RightHand
                  {
                    OFFSET 26.5688 1.52588e-005 0
                    CHANNELS 3 Zrotation Xrotation Yrotation
                    End Site
                    {
                      OFFSET 0 0 0
                    }
                  }
                }
              }
            }
            JOINT LeftShoulder
            {
              OFFSET 2.38034 -1.29275 -3.7523
              CHANNELS 3 Zrotation Xrotation Yrotation
              JOINT LeftArm
              {
                OFFSET 16.3182 6.10351e-005 0
                CHANNELS 3 Zrotation Xrotation Yrotation
                JOINT LeftForeArm
                {
                  OFFSET 27.0901 0 0
                  CHANNELS 3 Zrotation Xrotation Yrotation
                  JOINT LeftHand
                  {
                    OFFSET 24.5451 1.52588e-005 0
                    CHANNELS 3 Zrotation Xrotation Yrotation
                    End Site
                    {
                      OFFSET 0 0 0
                    }
                  }
                }
              }
            }
            JOINT Neck
            {
              OFFSET 5.0226 -0.0266342 0
              CHANNELS 3 Zrotation Xrotation Yrotation
              JOINT Head
              {
                OFFSET 6.69363 2.86102e-005 0
                CHANNELS 3 Zrotation Xrotation Yrotation
                End Site
                {
                  OFFSET 0 0 0
                }
              }
            }
          }
        }
      }
    }
  }
}
MOTION
Frames:	12
Frame Time:	0.0416667
91.9603 94.7803 29.8424 95.4895 -38.199 93.5133 -168.207 2.42379 95.2092 -48.7119 17.0347 -1.71925 50.989 -4.69014 -1.96883 44.113 13.2734 10.4083 175.632 16.4182 92.5969 -29.9065 -4.7169 -0.442141 67.2357 -3.29661 -1.77165 25.4549 -0.0698551 -1.03706 -0.349484 7.45607 -89.8417 11.9628 -0.62024 0.382841 0.291963 -0.602802 0.409755 -22.2442 -0.706624 0.178724 -2.2316 -0.706625 0.178723 93.4782 -47.0952 -95.9794 20.2921 -5.26809 12.8916 -12.6368 -30.5849 -43.907 3.53183 -0.391046 5.81602 -94.0174 -45.4866 71.4373 -22.9012 8.83254 7.73192 6.11893 4.52688 -47.1541 12.3371 0.783535 2.39413 12.2713 -0.608899 -2.96436 -5.61514 0.0326566 3.13296 
82.7783 93.2593 22.1542 92.8304 -36.2065 92.3982 -171.003 -2.94636 94.3946 -41.0235 24.4137 0.408758 55.5069 -1.74527 -0.47154 50.0662 18.2836 8.15688 175.784 23.5329 92.5645 -24.2989 -3.95783 0.155094 61.9615 -1.49296 -0.805906 35.3302 0.313109 -2.46491 -0.722024 7.50874 -89.8315 11.8596 -1.35648 0.480478 0.189253 -1.33401 0.539713 -22.3516 -1.43816 0.0504995 -2.33894 -1.43816 0.0505004 93.8385 -50.0102 -94.9161 19.7908 -0.515788 14.0499 -9.54016 -25.9243 -36.8365 -1.78427 -0.701499 8.79637 -94.947 -44.5215 69.6823 -17.4867 5.43841 -1.09276 6.77105 5.00008 -46.2727 15.0482 1.00139 2.75498 12.4329 -0.533588 -4.80223 -5.48085 0.511124 3.24654 
72.5466 93.3586 13.7752 91.0024 -34.889 90.1392 -171.413 -2.70696 91.3832 -30.3008 24.1333 -0.971548 68.635 9.84643 8.58496 45.7333 13.7014 3.09949 175.033 21.5747 90.9067 -7.40371 -1.16933 0.761542 64.6514 -2.94296 -1.67429 42.9564 0.443876 -4.74474 -0.794694 7.68057 -89.5102 11.5231 -1.35161 1.11982 -0.147627 -1.30101 1.1782 -22.6871 -1.62568 0.661775 -2.67444 -1.62568 0.661771 94.0614 -51.6541 -94.3154 21.3248 -1.14712 13.3688 -6.73125 -21.3407 -36.9095 -1.01769 -0.553498 6.88558 -95.5182 -42.7936 68.2012 -13.059 3.99408 -9.48995 5.87345 5.68806 -41.8364 13.8731 0.961652 2.98235 10.0669 -1.48157 -7.62167 -2.54981 0.133502 3.00903 
63.5213 95.1542 6.18664 91.8928 -38.5378 90.5303 -171.111 1.83977 89.6416 -26.1311 16.8863 -2.87484 69.599 9.6757 7.54044 38.7305 7.87489 1.87551 175.744 21.4628 90.871 -16.1939 -0.385436 -0.159199 62.3802 -2.45847 -1.42608 38.9202 0.385816 -4.96641 -0.398998 7.88511 -89.364 11.1042 -0.49899 1.31338 -0.56731 -0.440701 1.33406 -23.0991 -0.870611 1.10274 -3.08642 -0.870633 1.10273 93.2478 -51.6346 -95.5519 21.0827 -4.76877 9.38936 -9.49394 -26.6615 -42.22 6.63408 -0.114168 5.09153 -96.2115 -44.222 67.6071 -11.1353 4.09226 -6.66615 7.88757 6.96383 -44.9077 13.2566 0.981093 3.42312 9.66065 -1.38878 -5.84141 -1.15256 -0.173795 1.31061 
56.1875 97.3414 0.264415 92.6621 -41.9282 92.1908 -170.994 5.84536 90.2531 -22.332 14.5654 -3.24655 62.7157 2.45386 2.17431 38.6031 7.87543 4.22807 176.747 20.282 91.1145 -36.7618 0.376789 -1.61109 60.4441 -1.89136 -1.08321 38.389 0.366268 -5.80143 -0.0405279 7.80709 -89.5091 11.2581 0.147856 0.962641 -0.413228 0.190094 0.955193 -22.9456 -0.148253 0.962586 -2.93291 -0.148274 0.962569 93.0112 -50.562 -96.0954 20.5777 -7.96121 4.66681 -12.7368 -28.1795 -48.8986 8.87109 -0.0871084 4.59069 -95.1488 -44.4796 69.3556 -16.4638 6.61014 0.758991 3.81448 3.48528 -42.9069 17.1789 1.23458 3.30981 9.22426 -0.734397 -3.38815 -1.57849 -0.0347711 1.19347 
49.1328 96.9682 -4.61583 93.735 -42.9298 92.8076 -170.271 9.62315 90.5578 -20.5433 15.2847 -4.37 61.8096 2.03623 4.79327 35.8215 5.5317 2.97977 176.105 14.3795 89.1845 -52.0985 0.817716 -2.55159 59.1554 -1.89638 -1.10383 40.4739 0.363439 -6.08779 0.191666 7.70382 -89.5432 11.4642 0.594923 0.848681 -0.206916 0.631701 0.821675 -22.7402 0.312355 0.988227 -2.72755 0.312357 0.98823 92.9917 -49.3144 -96.347 19.0542 -10.1591 0.507391 -14.5147 -25.8926 -55.3777 2.41787 -0.430488 2.8359 -94.4575 -44.7252 70.5152 -21.6933 8.63564 8.21113 3.23721 3.97917 -39.2305 13.2803 0.80038 2.13487 9.30418 -1.08311 -2.06716 -2.87874 -0.658574 0.381188 
41.3468 95.4326 -9.43629 93.1964 -44.7593 90.3608 -169.963 15.9107 89.0585 -21.4553 11.4844 -5.26749 63.3367 2.9756 2.19674 28.3758 -0.533144 1.87717 176.176 5.54107 85.4436 -53.0234 -7.2923 -5.24789 55.8149 -0.47598 -0.176413 44.387 0.311871 -5.87868 0.672918 7.5996 -89.3478 11.6659 1.64434 1.12821 -0.00448591 1.6924 1.05474 -22.5408 1.22928 1.57022 -2.52812 1.2293 1.57022 92.5609 -48.6536 -97.1406 17.024 -9.48796 -4.17224 -16.2455 -24.3741 -58.9617 -4.9704 -0.731669 3.05201 -93.872 -45.4085 71.6389 -25.792 9.05836 12.3357 2.68795 5.71892 -32.8087 12.8476 0.971176 3.52265 10.1619 -2.29046 -1.2462 -3.52314 -1.99712 -0.022641 
32.1658 94.5047 -15.3026 91.931 -48.8308 89.0309 -170.157 20.7095 90.1805 -16.202 7.4297 -4.94665 58.2821 -1.03995 -1.58438 41.0207 10.0828 6.29862 177.36 -1.2991 85.5679 -42.7915 -20.4777 -9.32506 60.5689 -1.74424 -0.995946 51.3336 0.527116 -4.84795 1.25141 7.59029 -89.418 11.6816 2.7622 0.873679 0.0133001 2.798 0.751177 -22.5376 2.37189 1.66377 -2.52492 2.37189 1.66377 91.2474 -46.5218 -99.6708 15.5511 -8.03881 -10.2751 -16.7474 -24.9389 -58.3131 -4.75994 -0.76639 3.83565 -93.6074 -47.6592 72.7064 -29.0715 6.06756 15.4876 2.00533 3.91655 -27.2565 14.0168 1.21995 4.73314 10.2712 -2.29846 1.1154 -3.03648 -2.49175 -0.607429 
22.4385 94.5888 -22.3497 91.0337 -48.2181 91.4981 -170.939 21.2581 92.6488 -5.57937 4.90243 -3.62048 61.8905 2.1347 0.970447 44.5263 13.8849 12.0215 175.012 -2.41184 89.3419 -29.2189 -13.6299 -4.15808 73.0419 -6.29955 -3.1066 41.7743 0.576766 -1.47262 1.24431 7.84456 -89.9844 11.1894 2.48386 -0.212419 -0.479262 2.4721 -0.321606 -23.0329 2.43277 0.544353 -3.02027 2.4328 0.544364 90.5699 -45.5895 -100.977 10.8752 -7.15236 -16.738 -18.0805 -27.5678 -60.2096 -2.01515 -0.711925 5.28078 -95.1501 -49.9791 71.0788 -30.6966 7.34658 15.8693 0.202607 1.91071 -24.797 11.26 0.809024 3.14511 11.4793 -1.58349 2.17263 -1.1042 -1.9667 1.31888 
14.3647 95.6456 -27.3234 89.9554 -45.741 89.4278 -169.154 21.0164 91.0923 -18.2652 1.9536 -4.89593 59.8053 1.40657 0.879384 42.2471 11.4633 9.6872 174.789 0.853854 90.1737 -23.631 -9.79203 -2.50976 73.9104 -6.26997 -3.02071 35.8563 0.358197 -1.61338 0.913564 7.87656 -89.948 11.1226 1.84257 -0.0755094 -0.547038 1.83746 -0.156571 -23.0922 1.78005 0.481927 -3.07958 1.78003 0.481926 90.7088 -47.1903 -100.374 9.27677 -7.00198 -14.6907 -18.655 -28.2388 -59.5392 -2.81044 -0.739127 4.40027 -95.7435 -49.2177 69.9706 -32.6427 8.82468 15.4126 1.49068 5.20407 -26.8275 8.06488 0.517452 2.27373 11.7216 -1.94148 0.511494 -1.00494 -1.95102 1.69824 
8.18622 96.0376 -31.8834 89.7526 -43.7707 88.8149 -167.926 17.381 91.066 -38.2596 5.25593 -4.17301 59.5207 1.58796 1.73558 40.5127 9.91829 10.4257 175.445 4.84859 91.1817 -22.4612 -7.01334 -2.07872 73.8654 -6.10494 -2.96034 37.6215 0.397965 -2.26512 0.675793 7.8165 -89.8975 11.2403 1.39264 0.0657298 -0.429821 1.39419 0.00435739 -22.9706 1.30849 0.481315 -2.95798 1.30848 0.481311 91.7063 -48.7538 -98.4576 11.1208 -8.10368 -7.02319 -15.9267 -25.0568 -58.529 -2.80511 -0.643263 3.1219 -95.2707 -47.9141 70.2722 -30.4295 11.0221 13.5486 2.9335 7.33628 -32.1669 7.61755 0.425134 1.52598 12.575 -2.36777 -1.23823 -1.01222 -1.9701 2.11609 
3.04432 95.5431 -36.5323 89.1667 -41.1789 89.6954 -168.172 8.41049 93.2985 -43.973 8.48251 -2.65429 59.681 2.19046 3.24229 38.4458 7.97383 9.99836 175.449 11.2001 91.9777 -25.6188 -6.28877 -0.806029 72.7809 -5.69233 -2.83864 41.134 0.426975 -4.42024 0.175945 7.68401 -90.0736 11.5076 0.315787 -0.177692 -0.163314 0.30766 -0.191427 -22.6987 0.354592 -0.0745707 -2.68605 0.354579 -0.0745848 92.315 -49.1562 -97.4283 11.7789 -9.76691 -1.85762 -14.7193 -26.8438 -56.3897 -2.05093 -0.629305 3.41035 -94.847 -47.4892 70.7811 -26.7616 10.8412 10.3926 3.20139 5.75349 -36.7213 11.1564 0.577689 1.27229 12.7318 -1.46285 -1.69854 -1.43237 -0.965954 2.89624 
